Coordinates
version=1
nRows=9
nColumns=24
inDegrees=yes

Units are S.I. units (second, meters, Newtons, ...)
Angles are in degrees.

endheader
time	pelvis_tilt	pelvis_list	pelvis_rotation	pelvis_tx	pelvis_ty	pelvis_tz	hip_flexion_r	hip_adduction_r	hip_rotation_r	knee_angle_r	ankle_angle_r	subtalar_angle_r	mtp_angle_r	hip_flexion_l	hip_adduction_l	hip_rotation_l	knee_angle_l	ankle_angle_l	subtalar_angle_l	mtp_angle_l	lumbar_extension	lumbar_bending	lumbar_rotation
      3.91000000	     -8.60519671	      3.29682682	    -13.37336201	     -2.17420904	     -0.02874053	      0.44197755	     -7.25693024	     -2.62943281	     10.64284481	    -13.93959018	      3.58983321	      4.07252085	      8.42326495	     29.47204413	     -2.32432185	     -0.58986077	     -6.16733348	     -6.30118422	      2.58513552	     12.89267586	      7.36292277	     -0.62704154	     10.61611907
      3.91500000	     -8.69714198	      3.47839942	    -13.43131599	     -2.16661960	     -0.02933676	      0.44120410	     -7.20033197	     -2.99894175	     10.29678303	    -14.60204232	      3.25281544	      4.81259695	      9.28436036	     29.61571760	     -2.04911548	     -0.85262456	     -7.02870414	     -6.55060782	      2.67775127	     13.00582315	      7.64959013	     -0.76835704	     10.76545745
      3.92000000	     -8.74767239	      3.59793826	    -13.43826390	     -2.15906423	     -0.02984593	      0.44038455	     -7.21455534	     -3.28776921	     10.09230618	    -15.25889583	      2.73579759	      5.26139527	      9.86185086	     29.69695706	     -1.80289499	     -1.05524328	     -7.86524446	     -6.93332073	      2.71245265	     13.10347803	      7.86589364	     -0.86538586	     10.86772572
      3.92500000	     -8.80757569	      3.75613579	    -13.44170664	     -2.15146834	     -0.03030327	      0.43955229	     -7.17643266	     -3.61248427	      9.89226383	    -15.96864083	      2.16013374	      5.69798320	     10.43842582	     29.76951083	     -1.52598923	     -1.36132967	     -8.63344340	     -7.47723370	      2.72922811	     13.20900425	      8.10593014	     -1.00174476	     10.99182929
      3.93000000	     -8.87273665	      3.93127851	    -13.42847122	     -2.14388914	     -0.03069107	      0.43868606	     -7.08426893	     -3.95017314	      9.66153232	    -16.74168101	      1.50935589	      6.13885437	     11.05200454	     29.83564456	     -1.23457768	     -1.73444587	     -9.33240761	     -8.17392725	      2.73383495	     13.31708109	      8.35052981	     -1.15624525	     11.12228295
      3.93500000	     -8.95189691	      4.13113223	    -13.43758560	     -2.13634071	     -0.03098354	      0.43780499	     -6.90152889	     -4.31619814	      9.40802924	    -17.59762573	      0.76201622	      6.61935070	     11.82567026	     29.88132434	     -0.94139310	     -2.12927645	     -9.91790924	     -9.03121276	      2.68659733	     13.44399938	      8.61121038	     -1.32003797	     11.23484805
      3.94000000	     -9.02461555	      4.32073285	    -13.41785414	     -2.12886370	     -0.03118008	      0.43685079	     -6.68916480	     -4.67002296	      9.13547829	    -18.48413461	     -0.11030720	      7.05849987	     12.73345798	     29.93553533	     -0.64234181	     -2.49988363	    -10.49024518	    -10.01122252	      2.50470255	     13.56875930	      8.84784372	     -1.47819359	     11.38902848
      3.94500000	     -9.09639260	      4.56641151	    -13.39816509	     -2.12134603	     -0.03127143	      0.43595420	     -6.41724048	     -5.07092828	      8.87449061	    -19.44059092	     -1.11478391	      7.40732755	     13.59117820	     29.97455324	     -0.29507465	     -2.84081075	    -11.01449746	    -11.00374494	      2.29717026	     13.55568730	      9.10527803	     -1.69992743	     11.54663914
      3.95000000	     -9.14322292	      4.85525420	    -13.34435918	     -2.11380463	     -0.03126270	      0.43510722	     -6.12938042	     -5.49622359	      8.63444818	    -20.46837826	     -2.22319189	      7.62245682	     14.16290836	     30.00899559	      0.10771008	     -3.16819521	    -11.57241527	    -11.88223936	      2.17317408	     13.37139649	      9.35024583	     -1.98540131	     11.69033159
